STARTFONT 2.1
COMMENT
COMMENT Converted from OpenType font "awesome_icons.ttf" by "otf2bdf 3.0".
COMMENT
FONT -FreeType-awesome_icons-Medium-R-Normal--25-180-100-100-P-54-ISO10646-1
SIZE 18 100 100
FONTBOUNDINGBOX 32 31 -4 -6
STARTPROPERTIES 19
FOUNDRY "FreeType"
FAMILY_NAME "awesome_icons"
WEIGHT_NAME "Medium"
SLANT "R"
SETWIDTH_NAME "Normal"
ADD_STYLE_NAME ""
PIXEL_SIZE 25
POINT_SIZE 180
RESOLUTION_X 100
RESOLUTION_Y 100
SPACING "P"
AVERAGE_WIDTH 54
CHARSET_REGISTRY "ISO10646"
CHARSET_ENCODING "1"
FONT_ASCENT 20
FONT_DESCENT 5
COPYRIGHT "Typeface © (your company). 2021. All Rights Reserved"
_OTF_FONTFILE "awesome_icons.ttf"
_OTF_PSNAME "awesome_icons"
ENDPROPERTIES
CHARS 241
STARTCHAR 0000
ENCODING 0
SWIDTH 0 0
DWIDTH 0 0
BBX 0 0 0 0
BITMAP
ENDCHAR
STARTCHAR 001D
ENCODING 29
SWIDTH 0 0
DWIDTH 0 0
BBX 0 0 0 0
BITMAP
ENDCHAR
STARTCHAR 0020
ENCODING 32
SWIDTH 240 0
DWIDTH 6 0
BBX 0 0 0 0
BITMAP
ENDCHAR
STARTCHAR 0021
ENCODING 33
SWIDTH 320 0
DWIDTH 8 0
BBX 4 17 2 0
BITMAP
70
70
70
70
70
70
70
70
70
70
70
00
60
F0
F0
F0
70
ENDCHAR
STARTCHAR 0022
ENCODING 34
SWIDTH 560 0
DWIDTH 14 0
BBX 10 9 2 9
BITMAP
F3C0
F3C0
F3C0
F3C0
E380
E380
E380
6180
6180
ENDCHAR
STARTCHAR 0023
ENCODING 35
SWIDTH 560 0
DWIDTH 14 0
BBX 12 17 1 0
BITMAP
0CC0
1CC0
18C0
18C0
18C0
7FF0
7FF0
1980
1980
3980
FFE0
FFE0
3180
3180
3380
3300
3300
ENDCHAR
STARTCHAR 0024
ENCODING 36
SWIDTH 560 0
DWIDTH 14 0
BBX 11 22 1 -3
BITMAP
0600
0600
0600
1FC0
3FE0
7FC0
7800
7800
7800
3E00
3F80
0FC0
03E0
01E0
01E0
21E0
7FE0
FFC0
3F80
0600
0600
0600
ENDCHAR
STARTCHAR 0025
ENCODING 37
SWIDTH 880 0
DWIDTH 22 0
BBX 20 17 1 0
BITMAP
3C0600
7E0600
E70C00
E71C00
E71800
E73800
E733C0
E777E0
7E6E60
3CCE70
00CE70
018E70
018E70
030E70
030660
0607E0
0603C0
ENDCHAR
STARTCHAR 0026
ENCODING 38
SWIDTH 840 0
DWIDTH 21 0
BBX 18 19 2 0
BITMAP
0E8000
198000
104000
104000
100000
180000
080000
340000
461F80
820600
810400
808400
80C400
C04800
C02800
603000
701840
3C6CC0
0F8780
ENDCHAR
STARTCHAR 0027
ENCODING 39
SWIDTH 160 0
DWIDTH 4 0
BBX 2 5 1 14
BITMAP
C0
C0
C0
40
40
ENDCHAR
STARTCHAR 0028
ENCODING 40
SWIDTH 360 0
DWIDTH 9 0
BBX 5 24 3 -4
BITMAP
08
10
10
20
20
60
40
40
C0
C0
C0
C0
C0
C0
C0
C0
C0
40
60
60
20
30
10
08
ENDCHAR
STARTCHAR 0029
ENCODING 41
SWIDTH 360 0
DWIDTH 9 0
BBX 5 24 1 -4
BITMAP
80
C0
40
20
20
30
10
10
18
18
18
18
18
18
18
18
10
10
30
20
20
40
40
80
ENDCHAR
STARTCHAR 002A
ENCODING 42
SWIDTH 480 0
DWIDTH 12 0
BBX 7 7 3 13
BITMAP
30
30
D4
FE
30
6C
6C
ENDCHAR
STARTCHAR 002B
ENCODING 43
SWIDTH 480 0
DWIDTH 12 0
BBX 10 11 1 3
BITMAP
0C00
0C00
0C00
0C00
FFC0
FFC0
0C00
0C00
0C00
0C00
0C00
ENDCHAR
STARTCHAR 002C
ENCODING 44
SWIDTH 280 0
DWIDTH 7 0
BBX 2 7 2 -4
BITMAP
C0
C0
C0
40
40
40
80
ENDCHAR
STARTCHAR 002D
ENCODING 45
SWIDTH 320 0
DWIDTH 8 0
BBX 5 2 1 5
BITMAP
F8
F8
ENDCHAR
STARTCHAR 002E
ENCODING 46
SWIDTH 280 0
DWIDTH 7 0
BBX 3 3 2 0
BITMAP
C0
E0
C0
ENDCHAR
STARTCHAR 002F
ENCODING 47
SWIDTH 280 0
DWIDTH 7 0
BBX 8 19 0 -1
BITMAP
01
02
02
02
04
04
04
08
08
08
10
10
20
20
20
40
40
40
80
ENDCHAR
STARTCHAR 0030
ENCODING 48
SWIDTH 520 0
DWIDTH 13 0
BBX 11 17 1 0
BITMAP
0F00
3F80
7FC0
79E0
F0E0
F0E0
F0E0
E0E0
E0E0
E0E0
F0E0
F0E0
71E0
79E0
7FC0
3F80
0F00
ENDCHAR
STARTCHAR 0031
ENCODING 49
SWIDTH 520 0
DWIDTH 13 0
BBX 10 17 2 0
BITMAP
0E00
3E00
FE00
FE00
FE00
1E00
1E00
1E00
1E00
1E00
1E00
1E00
1E00
1E00
FFC0
FFC0
FFC0
ENDCHAR
STARTCHAR 0032
ENCODING 50
SWIDTH 520 0
DWIDTH 13 0
BBX 11 17 1 0
BITMAP
1F00
7F80
FFC0
63C0
01C0
01E0
01C0
03C0
03C0
0780
0F00
1F00
3E00
7C00
FFE0
FFE0
FFE0
ENDCHAR
STARTCHAR 0033
ENCODING 51
SWIDTH 520 0
DWIDTH 13 0
BBX 11 17 1 0
BITMAP
1F00
7FC0
7FC0
31E0
01E0
01E0
03C0
1F80
1F80
1FC0
01E0
01E0
01E0
61E0
FFC0
7FC0
1F00
ENDCHAR
STARTCHAR 0034
ENCODING 52
SWIDTH 520 0
DWIDTH 13 0
BBX 12 17 1 0
BITMAP
03C0
07C0
07C0
0FC0
0FC0
1DC0
3DC0
39C0
79C0
71C0
FFF0
FFF0
FFF0
01C0
01C0
01C0
01C0
ENDCHAR
STARTCHAR 0035
ENCODING 53
SWIDTH 520 0
DWIDTH 13 0
BBX 11 17 1 0
BITMAP
7FC0
7FC0
7FC0
7000
7000
7000
7600
7F80
7FC0
23E0
01E0
01E0
01E0
E3E0
FFC0
FF80
3F00
ENDCHAR
STARTCHAR 0036
ENCODING 54
SWIDTH 520 0
DWIDTH 13 0
BBX 11 17 1 0
BITMAP
0F80
1FE0
3FE0
78C0
7000
F000
E300
EFC0
FFE0
F1E0
F0E0
F0E0
F0E0
71E0
7FE0
3FC0
0F00
ENDCHAR
STARTCHAR 0037
ENCODING 55
SWIDTH 520 0
DWIDTH 13 0
BBX 11 16 1 0
BITMAP
FFE0
FFE0
FFE0
01C0
0380
0380
0700
0700
0F00
0E00
0E00
1E00
1E00
1E00
1E00
1E00
ENDCHAR
STARTCHAR 0038
ENCODING 56
SWIDTH 520 0
DWIDTH 13 0
BBX 11 17 1 0
BITMAP
1F00
3F80
7FC0
71C0
71C0
71C0
79C0
3F80
1F80
77C0
F3E0
E1E0
E0E0
F1E0
FFC0
7FC0
1F00
ENDCHAR
STARTCHAR 0039
ENCODING 57
SWIDTH 520 0
DWIDTH 13 0
BBX 11 17 1 0
BITMAP
1F00
3F80
7FC0
F1E0
E0E0
E0E0
E0E0
F1E0
7FE0
7EE0
0CE0
00E0
01E0
23C0
7FC0
7F80
3E00
ENDCHAR
STARTCHAR 003A
ENCODING 58
SWIDTH 320 0
DWIDTH 8 0
BBX 4 13 2 0
BITMAP
70
F0
F0
F0
60
00
00
00
60
F0
F0
F0
70
ENDCHAR
STARTCHAR 003B
ENCODING 59
SWIDTH 320 0
DWIDTH 8 0
BBX 5 17 1 -5
BITMAP
78
78
78
70
00
00
00
00
78
78
78
38
18
38
70
E0
40
ENDCHAR
STARTCHAR 003C
ENCODING 60
SWIDTH 520 0
DWIDTH 13 0
BBX 11 14 1 2
BITMAP
0020
0060
01E0
0780
1E00
3800
F000
F000
3800
1E00
0780
01E0
0060
0020
ENDCHAR
STARTCHAR 003D
ENCODING 61
SWIDTH 480 0
DWIDTH 12 0
BBX 10 6 1 6
BITMAP
FFC0
FFC0
0000
0000
FFC0
FFC0
ENDCHAR
STARTCHAR 003E
ENCODING 62
SWIDTH 520 0
DWIDTH 13 0
BBX 11 12 1 3
BITMAP
C000
F000
3800
1E00
0780
01E0
01E0
0780
1E00
3800
F000
C000
ENDCHAR
STARTCHAR 003F
ENCODING 63
SWIDTH 360 0
DWIDTH 9 0
BBX 6 18 2 0
BITMAP
78
9C
0C
0C
0C
18
18
30
20
60
40
40
40
00
00
60
60
60
ENDCHAR
STARTCHAR 0040
ENCODING 64
SWIDTH 1000 0
DWIDTH 25 0
BBX 22 24 1 -6
BITMAP
00FE00
030380
0E00C0
180060
300030
307818
60CC18
608C1C
C00C0C
C01C0C
C0EC0C
C18C0C
C10C0C
C30C18
C30C18
C10C30
618C60
607380
300000
380000
1C0000
0E00C0
038380
00FC00
ENDCHAR
STARTCHAR 0041
ENCODING 65
SWIDTH 1000 0
DWIDTH 25 0
BBX 15 16 0 1
BITMAP
8000
C006
E006
F00E
F016
B83E
FC5E
DEFE
BDFE
5FFC
27F8
1FF0
0DE0
07C0
0380
0100
ENDCHAR
STARTCHAR 0042
ENCODING 66
SWIDTH 1000 0
DWIDTH 25 0
BBX 15 16 0 1
BITMAP
0100
0280
07C0
0F60
1BF0
3F78
3FF8
5FFC
F97E
BEFE
FC5A
A83E
F01A
A00E
C006
8002
ENDCHAR
STARTCHAR 0043
ENCODING 67
SWIDTH 1120 0
DWIDTH 28 0
BBX 28 23 0 -1
BITMAP
00000600
000F0F00
001F8F00
003FEF00
007DFF00
01F0FF00
03E27F00
07CFBF00
0F9FCF80
1F3FE7C0
7C7FF3E0
F8FFF9F0
73FFFC70
67FFFF20
07FFFF00
07FFFF00
07F0FF00
07F07F00
07F07F00
07F07F00
07F07F00
07F07F00
07F07F00
ENDCHAR
STARTCHAR 0044
ENCODING 68
SWIDTH 960 0
DWIDTH 24 0
BBX 9 22 0 -3
BITMAP
1C00
2200
3A00
3A00
3A00
3A00
3A00
2200
2E00
2E00
2E00
2E00
2E00
6F00
8C80
9E80
BF80
BF80
BE80
9C80
4100
3E00
ENDCHAR
STARTCHAR 0045
ENCODING 69
SWIDTH 560 0
DWIDTH 14 0
BBX 11 17 2 0
BITMAP
FFC0
FFC0
FFC0
F000
F000
F000
F000
FF80
FF80
FF80
F000
F000
F000
F000
FFE0
FFE0
FFE0
ENDCHAR
STARTCHAR 0046
ENCODING 70
SWIDTH 1040 0
DWIDTH 26 0
BBX 22 12 1 3
BITMAP
01FC00
07FF00
0E03C0
180000
300050
6000B0
600118
C00218
C0040C
C0080C
C0300C
003000
ENDCHAR
STARTCHAR 0047
ENCODING 71
SWIDTH 1040 0
DWIDTH 26 0
BBX 22 13 0 3
BITMAP
000700
000480
00009C
000094
000104
FFFE78
3FFFC0
000060
1FF9A0
000660
000A20
000220
0001C0
ENDCHAR
STARTCHAR 0048
ENCODING 72
SWIDTH 520 0
DWIDTH 13 0
BBX 13 29 0 -4
BITMAP
0F80
1FC0
1CC0
18C0
18C0
18C0
18C0
18C0
18C0
1AC0
1AC0
1AC0
1AC0
1AC0
1AC0
1AC0
1AC0
3AE0
7270
6738
EF98
DFD8
DFD8
CFD8
EFB8
7230
7CF0
3FE0
0F80
ENDCHAR
STARTCHAR 0049
ENCODING 73
SWIDTH 360 0
DWIDTH 9 0
BBX 7 7 1 10
BITMAP
38
7C
C6
C6
C6
7C
38
ENDCHAR
STARTCHAR 004A
ENCODING 74
SWIDTH 760 0
DWIDTH 19 0
BBX 19 25 0 -4
BITMAP
004000
00E000
01F000
03F800
07FC00
0FFE00
0FFF00
1FF300
31F380
20E780
64E7C0
64CFC0
64CFE0
E4DFE0
F09FE0
FFB0E0
FF3260
FF6260
FE6260
7EF260
7CF0C0
3DF980
1FFF80
0FFF00
07FC00
ENDCHAR
STARTCHAR 004B
ENCODING 75
SWIDTH 1000 0
DWIDTH 25 0
BBX 15 22 0 -3
BITMAP
0100
0180
0380
03C0
07C0
07E0
0FE0
0FF0
1FF0
1FF8
3FF8
3FFC
7FFC
7FFE
FFFE
DFFE
DFFE
6FFE
63FC
307C
1C78
0FE0
ENDCHAR
STARTCHAR 004C
ENCODING 76
SWIDTH 560 0
DWIDTH 14 0
BBX 0 0 0 0
BITMAP
ENDCHAR
STARTCHAR 004D
ENCODING 77
SWIDTH 880 0
DWIDTH 22 0
BBX 0 0 0 0
BITMAP
ENDCHAR
STARTCHAR 004E
ENCODING 78
SWIDTH 680 0
DWIDTH 17 0
BBX 13 17 2 0
BITMAP
F078
F078
F878
FC78
FC78
FE78
EE78
EF38
E738
E7B8
E3B8
F3F8
F1F8
F1F8
F0F8
F0F8
F078
ENDCHAR
STARTCHAR 004F
ENCODING 79
SWIDTH 800 0
DWIDTH 20 0
BBX 0 0 0 0
BITMAP
ENDCHAR
STARTCHAR 0050
ENCODING 80
SWIDTH 560 0
DWIDTH 14 0
BBX 0 0 0 0
BITMAP
ENDCHAR
STARTCHAR 0051
ENCODING 81
SWIDTH 800 0
DWIDTH 20 0
BBX 0 0 0 0
BITMAP
ENDCHAR
STARTCHAR 0052
ENCODING 82
SWIDTH 640 0
DWIDTH 16 0
BBX 0 0 0 0
BITMAP
ENDCHAR
STARTCHAR 0053
ENCODING 83
SWIDTH 600 0
DWIDTH 15 0
BBX 13 17 1 0
BITMAP
0FC0
3FF0
3FF0
7860
7800
7800
7E00
3FC0
1FE0
07F0
01F8
0078
2078
7CF0
FFF0
7FE0
0F80
ENDCHAR
STARTCHAR 0054
ENCODING 84
SWIDTH 640 0
DWIDTH 16 0
BBX 0 0 0 0
BITMAP
ENDCHAR
STARTCHAR 0055
ENCODING 85
SWIDTH 720 0
DWIDTH 18 0
BBX 0 0 0 0
BITMAP
ENDCHAR
STARTCHAR 0056
ENCODING 86
SWIDTH 720 0
DWIDTH 18 0
BBX 0 0 0 0
BITMAP
ENDCHAR
STARTCHAR 0057
ENCODING 87
SWIDTH 800 0
DWIDTH 20 0
BBX 20 17 0 0
BITMAP
F070F0
70F0F0
70F0F0
78F8E0
78F8E0
78F8E0
79F8E0
39D9E0
39DDE0
399DC0
3D9DC0
3F9DC0
1F8DC0
1F8FC0
1F0FC0
1F0F80
1F0F80
ENDCHAR
STARTCHAR 0058
ENCODING 88
SWIDTH 640 0
DWIDTH 16 0
BBX 0 0 0 0
BITMAP
ENDCHAR
STARTCHAR 0059
ENCODING 89
SWIDTH 600 0
DWIDTH 15 0
BBX 0 0 0 0
BITMAP
ENDCHAR
STARTCHAR 005A
ENCODING 90
SWIDTH 560 0
DWIDTH 14 0
BBX 0 0 0 0
BITMAP
ENDCHAR
STARTCHAR 005B
ENCODING 91
SWIDTH 360 0
DWIDTH 9 0
BBX 0 0 0 0
BITMAP
ENDCHAR
STARTCHAR 005C
ENCODING 92
SWIDTH 280 0
DWIDTH 7 0
BBX 0 0 0 0
BITMAP
ENDCHAR
STARTCHAR 005D
ENCODING 93
SWIDTH 360 0
DWIDTH 9 0
BBX 0 0 0 0
BITMAP
ENDCHAR
STARTCHAR 005E
ENCODING 94
SWIDTH 480 0
DWIDTH 12 0
BBX 0 0 0 0
BITMAP
ENDCHAR
STARTCHAR 005F
ENCODING 95
SWIDTH 520 0
DWIDTH 13 0
BBX 13 1 0 -2
BITMAP
FFF8
ENDCHAR
STARTCHAR 0060
ENCODING 96
SWIDTH 520 0
DWIDTH 13 0
BBX 5 4 3 15
BITMAP
C0
60
30
08
ENDCHAR
STARTCHAR 0061
ENCODING 97
SWIDTH 440 0
DWIDTH 11 0
BBX 0 0 0 0
BITMAP
ENDCHAR
STARTCHAR 0062
ENCODING 98
SWIDTH 480 0
DWIDTH 12 0
BBX 0 0 0 0
BITMAP
ENDCHAR
STARTCHAR 0063
ENCODING 99
SWIDTH 440 0
DWIDTH 11 0
BBX 0 0 0 0
BITMAP
ENDCHAR
STARTCHAR 0064
ENCODING 100
SWIDTH 1040 0
DWIDTH 26 0
BBX 22 22 1 -2
BITMAP
001000
001000
201030
301060
1810C0
0C0180
047800
01FC00
03FE00
03FF00
FBFF7C
03FF00
03FF00
03FF00
01FE00
01FC00
047180
0C10C0
181060
301020
001000
001000
ENDCHAR
STARTCHAR 0065
ENCODING 101
SWIDTH 1000 0
DWIDTH 25 0
BBX 22 22 0 -2
BITMAP
380000
7C0FE0
C63FF8
C67FFC
C6FFF8
7DF838
33E010
03C000
07C000
078000
078000
078000
078000
078000
07C000
03C000
03E010
01F878
00FFF8
007FFC
003FF8
000FC0
ENDCHAR
STARTCHAR 0066
ENCODING 102
SWIDTH 280 0
DWIDTH 7 0
BBX 0 0 0 0
BITMAP
ENDCHAR
STARTCHAR 0067
ENCODING 103
SWIDTH 440 0
DWIDTH 11 0
BBX 0 0 0 0
BITMAP
ENDCHAR
STARTCHAR 0068
ENCODING 104
SWIDTH 520 0
DWIDTH 13 0
BBX 0 0 0 0
BITMAP
ENDCHAR
STARTCHAR 0069
ENCODING 105
SWIDTH 240 0
DWIDTH 6 0
BBX 0 0 0 0
BITMAP
ENDCHAR
STARTCHAR 006A
ENCODING 106
SWIDTH 240 0
DWIDTH 6 0
BBX 0 0 0 0
BITMAP
ENDCHAR
STARTCHAR 006B
ENCODING 107
SWIDTH 520 0
DWIDTH 13 0
BBX 0 0 0 0
BITMAP
ENDCHAR
STARTCHAR 006C
ENCODING 108
SWIDTH 240 0
DWIDTH 6 0
BBX 0 0 0 0
BITMAP
ENDCHAR
STARTCHAR 006D
ENCODING 109
SWIDTH 760 0
DWIDTH 19 0
BBX 0 0 0 0
BITMAP
ENDCHAR
STARTCHAR 006E
ENCODING 110
SWIDTH 1000 0
DWIDTH 25 0
BBX 16 16 5 0
BITMAP
0780
1F00
3E00
3E00
7C00
7C00
FC00
FC00
FE00
FE00
7F00
7F81
3FFE
3FFC
0FF8
07E0
ENDCHAR
STARTCHAR 006F
ENCODING 111
SWIDTH 480 0
DWIDTH 12 0
BBX 0 0 0 0
BITMAP
ENDCHAR
STARTCHAR 0070
ENCODING 112
SWIDTH 480 0
DWIDTH 12 0
BBX 0 0 0 0
BITMAP
ENDCHAR
STARTCHAR 0071
ENCODING 113
SWIDTH 520 0
DWIDTH 13 0
BBX 0 0 0 0
BITMAP
ENDCHAR
STARTCHAR 0072
ENCODING 114
SWIDTH 320 0
DWIDTH 8 0
BBX 0 0 0 0
BITMAP
ENDCHAR
STARTCHAR 0073
ENCODING 115
SWIDTH 360 0
DWIDTH 9 0
BBX 0 0 0 0
BITMAP
ENDCHAR
STARTCHAR 0074
ENCODING 116
SWIDTH 320 0
DWIDTH 8 0
BBX 0 0 0 0
BITMAP
ENDCHAR
STARTCHAR 0075
ENCODING 117
SWIDTH 520 0
DWIDTH 13 0
BBX 0 0 0 0
BITMAP
ENDCHAR
STARTCHAR 0076
ENCODING 118
SWIDTH 480 0
DWIDTH 12 0
BBX 0 0 0 0
BITMAP
ENDCHAR
STARTCHAR 0077
ENCODING 119
SWIDTH 680 0
DWIDTH 17 0
BBX 0 0 0 0
BITMAP
ENDCHAR
STARTCHAR 0078
ENCODING 120
SWIDTH 480 0
DWIDTH 12 0
BBX 0 0 0 0
BITMAP
ENDCHAR
STARTCHAR 0079
ENCODING 121
SWIDTH 440 0
DWIDTH 11 0
BBX 0 0 0 0
BITMAP
ENDCHAR
STARTCHAR 007A
ENCODING 122
SWIDTH 360 0
DWIDTH 9 0
BBX 0 0 0 0
BITMAP
ENDCHAR
STARTCHAR 007B
ENCODING 123
SWIDTH 480 0
DWIDTH 12 0
BBX 8 23 3 -3
BITMAP
0F
18
18
18
18
18
18
18
18
10
30
C0
30
10
18
18
18
18
18
18
18
18
0F
ENDCHAR
STARTCHAR 007C
ENCODING 124
SWIDTH 480 0
DWIDTH 12 0
BBX 2 25 5 -5
BITMAP
C0
C0
C0
C0
C0
C0
C0
C0
C0
C0
C0
C0
C0
C0
C0
C0
C0
C0
C0
C0
C0
C0
C0
C0
C0
ENDCHAR
STARTCHAR 007D
ENCODING 125
SWIDTH 520 0
DWIDTH 13 0
BBX 8 23 2 -3
BITMAP
E0
10
18
18
18
18
18
18
18
18
0C
07
0C
18
18
18
18
18
18
18
18
10
E0
ENDCHAR
STARTCHAR 007E
ENCODING 126
SWIDTH 480 0
DWIDTH 12 0
BBX 10 3 1 8
BITMAP
7840
FFC0
8780
ENDCHAR
STARTCHAR 00A0
ENCODING 160
SWIDTH 240 0
DWIDTH 6 0
BBX 0 0 0 0
BITMAP
ENDCHAR
STARTCHAR 00A1
ENCODING 161
SWIDTH 320 0
DWIDTH 8 0
BBX 0 0 0 0
BITMAP
ENDCHAR
STARTCHAR 00A2
ENCODING 162
SWIDTH 560 0
DWIDTH 14 0
BBX 0 0 0 0
BITMAP
ENDCHAR
STARTCHAR 00A3
ENCODING 163
SWIDTH 520 0
DWIDTH 13 0
BBX 11 18 1 0
BITMAP
0FC0
1840
3040
6000
6000
6000
6000
6000
2000
FF00
3000
1800
1800
1800
3000
3020
6040
FFC0
ENDCHAR
STARTCHAR 00A4
ENCODING 164
SWIDTH 480 0
DWIDTH 12 0
BBX 9 10 1 4
BITMAP
0080
DF80
7380
6180
4080
4080
4180
6300
FF80
4080
ENDCHAR
STARTCHAR 00A5
ENCODING 165
SWIDTH 640 0
DWIDTH 16 0
BBX 16 15 0 0
BITMAP
FC1F
300C
1808
0C10
0E30
7E3E
0340
7FFE
0180
0180
0180
0180
0180
0180
07E0
ENDCHAR
STARTCHAR 00A6
ENCODING 166
SWIDTH 480 0
DWIDTH 12 0
BBX 2 25 5 -5
BITMAP
C0
C0
C0
C0
C0
C0
C0
C0
C0
C0
00
00
00
00
00
C0
C0
C0
C0
C0
C0
C0
C0
C0
C0
ENDCHAR
STARTCHAR 00A7
ENCODING 167
SWIDTH 480 0
DWIDTH 12 0
BBX 8 23 2 -5
BITMAP
7E
C6
82
80
C0
E0
78
3E
3F
C7
83
81
C3
E6
78
3E
0F
03
03
01
83
C6
FC
ENDCHAR
STARTCHAR 00A8
ENCODING 168
SWIDTH 520 0
DWIDTH 13 0
BBX 7 3 3 14
BITMAP
84
CE
84
ENDCHAR
STARTCHAR 00A9
ENCODING 169
SWIDTH 800 0
DWIDTH 20 0
BBX 18 19 1 0
BITMAP
03F000
0C0C00
100200
21E900
461880
4C0880
8C0080
980040
980040
980040
980040
980040
8C0080
4C0480
470C80
21F100
100200
0C0C00
03F000
ENDCHAR
STARTCHAR 00AB
ENCODING 171
SWIDTH 440 0
DWIDTH 11 0
BBX 8 8 2 2
BITMAP
11
22
66
CC
CC
66
22
11
ENDCHAR
STARTCHAR 00AC
ENCODING 172
SWIDTH 480 0
DWIDTH 12 0
BBX 10 6 1 4
BITMAP
FFC0
0040
0040
0040
0040
0040
ENDCHAR
STARTCHAR 00AD
ENCODING 173
SWIDTH 320 0
DWIDTH 8 0
BBX 5 2 1 5
BITMAP
F8
F8
ENDCHAR
STARTCHAR 00AE
ENCODING 174
SWIDTH 800 0
DWIDTH 20 0
BBX 18 19 1 0
BITMAP
03F000
0C0C00
100200
200100
47E080
433080
831880
831840
831840
831040
83B040
836040
833080
431880
47BD00
200100
180600
0E1C00
03E000
ENDCHAR
STARTCHAR 00AF
ENCODING 175
SWIDTH 320 0
DWIDTH 8 0
BBX 0 0 0 0
BITMAP
ENDCHAR
STARTCHAR 00B0
ENCODING 176
SWIDTH 360 0
DWIDTH 9 0
BBX 7 7 1 11
BITMAP
38
44
82
82
82
44
38
ENDCHAR
STARTCHAR 00B1
ENCODING 177
SWIDTH 480 0
DWIDTH 12 0
BBX 0 0 0 0
BITMAP
ENDCHAR
STARTCHAR 00B2
ENCODING 178
SWIDTH 480 0
DWIDTH 12 0
BBX 0 0 0 0
BITMAP
ENDCHAR
STARTCHAR 00B3
ENCODING 179
SWIDTH 480 0
DWIDTH 12 0
BBX 0 0 0 0
BITMAP
ENDCHAR
STARTCHAR 00B4
ENCODING 180
SWIDTH 520 0
DWIDTH 13 0
BBX 5 4 4 15
BITMAP
18
30
60
80
ENDCHAR
STARTCHAR 00B5
ENCODING 181
SWIDTH 560 0
DWIDTH 14 0
BBX 0 0 0 0
BITMAP
ENDCHAR
STARTCHAR 00B6
ENCODING 182
SWIDTH 520 0
DWIDTH 13 0
BBX 11 18 1 0
BITMAP
1FE0
7C80
7C80
FC80
FC80
FC80
7C80
3C80
0C80
0480
0480
0480
0480
0480
0480
0480
0480
0480
ENDCHAR
STARTCHAR 00B7
ENCODING 183
SWIDTH 240 0
DWIDTH 6 0
BBX 3 3 2 7
BITMAP
C0
E0
C0
ENDCHAR
STARTCHAR 00B8
ENCODING 184
SWIDTH 520 0
DWIDTH 13 0
BBX 5 5 5 -5
BITMAP
40
70
18
18
F0
ENDCHAR
STARTCHAR 00B9
ENCODING 185
SWIDTH 480 0
DWIDTH 12 0
BBX 0 0 0 0
BITMAP
ENDCHAR
STARTCHAR 00BA
ENCODING 186
SWIDTH 360 0
DWIDTH 9 0
BBX 0 0 0 0
BITMAP
ENDCHAR
STARTCHAR 00BB
ENCODING 187
SWIDTH 440 0
DWIDTH 11 0
BBX 8 8 1 2
BITMAP
88
44
66
33
33
66
44
88
ENDCHAR
STARTCHAR 00BC
ENCODING 188
SWIDTH 840 0
DWIDTH 21 0
BBX 0 0 0 0
BITMAP
ENDCHAR
STARTCHAR 00BD
ENCODING 189
SWIDTH 960 0
DWIDTH 24 0
BBX 0 0 0 0
BITMAP
ENDCHAR
STARTCHAR 00BE
ENCODING 190
SWIDTH 840 0
DWIDTH 21 0
BBX 0 0 0 0
BITMAP
ENDCHAR
STARTCHAR 00BF
ENCODING 191
SWIDTH 360 0
DWIDTH 9 0
BBX 0 0 0 0
BITMAP
ENDCHAR
STARTCHAR 00C0
ENCODING 192
SWIDTH 760 0
DWIDTH 19 0
BBX 0 0 0 0
BITMAP
ENDCHAR
STARTCHAR 00C1
ENCODING 193
SWIDTH 760 0
DWIDTH 19 0
BBX 0 0 0 0
BITMAP
ENDCHAR
STARTCHAR 00C2
ENCODING 194
SWIDTH 760 0
DWIDTH 19 0
BBX 0 0 0 0
BITMAP
ENDCHAR
STARTCHAR 00C3
ENCODING 195
SWIDTH 760 0
DWIDTH 19 0
BBX 0 0 0 0
BITMAP
ENDCHAR
STARTCHAR 00C4
ENCODING 196
SWIDTH 760 0
DWIDTH 19 0
BBX 0 0 0 0
BITMAP
ENDCHAR
STARTCHAR 00C5
ENCODING 197
SWIDTH 760 0
DWIDTH 19 0
BBX 0 0 0 0
BITMAP
ENDCHAR
STARTCHAR 00C6
ENCODING 198
SWIDTH 1040 0
DWIDTH 26 0
BBX 0 0 0 0
BITMAP
ENDCHAR
STARTCHAR 00C7
ENCODING 199
SWIDTH 680 0
DWIDTH 17 0
BBX 0 0 0 0
BITMAP
ENDCHAR
STARTCHAR 00C8
ENCODING 200
SWIDTH 560 0
DWIDTH 14 0
BBX 0 0 0 0
BITMAP
ENDCHAR
STARTCHAR 00C9
ENCODING 201
SWIDTH 560 0
DWIDTH 14 0
BBX 0 0 0 0
BITMAP
ENDCHAR
STARTCHAR 00CA
ENCODING 202
SWIDTH 560 0
DWIDTH 14 0
BBX 0 0 0 0
BITMAP
ENDCHAR
STARTCHAR 00CB
ENCODING 203
SWIDTH 560 0
DWIDTH 14 0
BBX 0 0 0 0
BITMAP
ENDCHAR
STARTCHAR 00CC
ENCODING 204
SWIDTH 320 0
DWIDTH 8 0
BBX 0 0 0 0
BITMAP
ENDCHAR
STARTCHAR 00CD
ENCODING 205
SWIDTH 320 0
DWIDTH 8 0
BBX 0 0 0 0
BITMAP
ENDCHAR
STARTCHAR 00CE
ENCODING 206
SWIDTH 320 0
DWIDTH 8 0
BBX 0 0 0 0
BITMAP
ENDCHAR
STARTCHAR 00CF
ENCODING 207
SWIDTH 320 0
DWIDTH 8 0
BBX 0 0 0 0
BITMAP
ENDCHAR
STARTCHAR 00D0
ENCODING 208
SWIDTH 760 0
DWIDTH 19 0
BBX 0 0 0 0
BITMAP
ENDCHAR
STARTCHAR 00D1
ENCODING 209
SWIDTH 760 0
DWIDTH 19 0
BBX 0 0 0 0
BITMAP
ENDCHAR
STARTCHAR 00D2
ENCODING 210
SWIDTH 800 0
DWIDTH 20 0
BBX 0 0 0 0
BITMAP
ENDCHAR
STARTCHAR 00D3
ENCODING 211
SWIDTH 800 0
DWIDTH 20 0
BBX 0 0 0 0
BITMAP
ENDCHAR
STARTCHAR 00D4
ENCODING 212
SWIDTH 800 0
DWIDTH 20 0
BBX 0 0 0 0
BITMAP
ENDCHAR
STARTCHAR 00D5
ENCODING 213
SWIDTH 800 0
DWIDTH 20 0
BBX 0 0 0 0
BITMAP
ENDCHAR
STARTCHAR 00D6
ENCODING 214
SWIDTH 800 0
DWIDTH 20 0
BBX 0 0 0 0
BITMAP
ENDCHAR
STARTCHAR 00D7
ENCODING 215
SWIDTH 480 0
DWIDTH 12 0
BBX 8 8 2 5
BITMAP
C3
67
3E
3C
3C
3E
67
C3
ENDCHAR
STARTCHAR 00D8
ENCODING 216
SWIDTH 800 0
DWIDTH 20 0
BBX 0 0 0 0
BITMAP
ENDCHAR
STARTCHAR 00D9
ENCODING 217
SWIDTH 720 0
DWIDTH 18 0
BBX 0 0 0 0
BITMAP
ENDCHAR
STARTCHAR 00DA
ENCODING 218
SWIDTH 720 0
DWIDTH 18 0
BBX 0 0 0 0
BITMAP
ENDCHAR
STARTCHAR 00DB
ENCODING 219
SWIDTH 720 0
DWIDTH 18 0
BBX 0 0 0 0
BITMAP
ENDCHAR
STARTCHAR 00DC
ENCODING 220
SWIDTH 720 0
DWIDTH 18 0
BBX 0 0 0 0
BITMAP
ENDCHAR
STARTCHAR 00DD
ENCODING 221
SWIDTH 600 0
DWIDTH 15 0
BBX 0 0 0 0
BITMAP
ENDCHAR
STARTCHAR 00DE
ENCODING 222
SWIDTH 560 0
DWIDTH 14 0
BBX 0 0 0 0
BITMAP
ENDCHAR
STARTCHAR 00DF
ENCODING 223
SWIDTH 600 0
DWIDTH 15 0
BBX 0 0 0 0
BITMAP
ENDCHAR
STARTCHAR 00E0
ENCODING 224
SWIDTH 440 0
DWIDTH 11 0
BBX 0 0 0 0
BITMAP
ENDCHAR
STARTCHAR 00E1
ENCODING 225
SWIDTH 440 0
DWIDTH 11 0
BBX 0 0 0 0
BITMAP
ENDCHAR
STARTCHAR 00E2
ENCODING 226
SWIDTH 440 0
DWIDTH 11 0
BBX 0 0 0 0
BITMAP
ENDCHAR
STARTCHAR 00E3
ENCODING 227
SWIDTH 440 0
DWIDTH 11 0
BBX 0 0 0 0
BITMAP
ENDCHAR
STARTCHAR 00E4
ENCODING 228
SWIDTH 440 0
DWIDTH 11 0
BBX 0 0 0 0
BITMAP
ENDCHAR
STARTCHAR 00E5
ENCODING 229
SWIDTH 440 0
DWIDTH 11 0
BBX 0 0 0 0
BITMAP
ENDCHAR
STARTCHAR 00E6
ENCODING 230
SWIDTH 720 0
DWIDTH 18 0
BBX 0 0 0 0
BITMAP
ENDCHAR
STARTCHAR 00E7
ENCODING 231
SWIDTH 440 0
DWIDTH 11 0
BBX 0 0 0 0
BITMAP
ENDCHAR
STARTCHAR 00E8
ENCODING 232
SWIDTH 440 0
DWIDTH 11 0
BBX 0 0 0 0
BITMAP
ENDCHAR
STARTCHAR 00E9
ENCODING 233
SWIDTH 440 0
DWIDTH 11 0
BBX 0 0 0 0
BITMAP
ENDCHAR
STARTCHAR 00EA
ENCODING 234
SWIDTH 440 0
DWIDTH 11 0
BBX 0 0 0 0
BITMAP
ENDCHAR
STARTCHAR 00EB
ENCODING 235
SWIDTH 440 0
DWIDTH 11 0
BBX 0 0 0 0
BITMAP
ENDCHAR
STARTCHAR 00EC
ENCODING 236
SWIDTH 240 0
DWIDTH 6 0
BBX 0 0 0 0
BITMAP
ENDCHAR
STARTCHAR 00ED
ENCODING 237
SWIDTH 240 0
DWIDTH 6 0
BBX 0 0 0 0
BITMAP
ENDCHAR
STARTCHAR 00EE
ENCODING 238
SWIDTH 240 0
DWIDTH 6 0
BBX 0 0 0 0
BITMAP
ENDCHAR
STARTCHAR 00EF
ENCODING 239
SWIDTH 240 0
DWIDTH 6 0
BBX 0 0 0 0
BITMAP
ENDCHAR
STARTCHAR 00F0
ENCODING 240
SWIDTH 560 0
DWIDTH 14 0
BBX 0 0 0 0
BITMAP
ENDCHAR
STARTCHAR 00F1
ENCODING 241
SWIDTH 560 0
DWIDTH 14 0
BBX 0 0 0 0
BITMAP
ENDCHAR
STARTCHAR 00F2
ENCODING 242
SWIDTH 480 0
DWIDTH 12 0
BBX 0 0 0 0
BITMAP
ENDCHAR
STARTCHAR 00F3
ENCODING 243
SWIDTH 480 0
DWIDTH 12 0
BBX 0 0 0 0
BITMAP
ENDCHAR
STARTCHAR 00F4
ENCODING 244
SWIDTH 480 0
DWIDTH 12 0
BBX 0 0 0 0
BITMAP
ENDCHAR
STARTCHAR 00F5
ENCODING 245
SWIDTH 480 0
DWIDTH 12 0
BBX 0 0 0 0
BITMAP
ENDCHAR
STARTCHAR 00F6
ENCODING 246
SWIDTH 480 0
DWIDTH 12 0
BBX 0 0 0 0
BITMAP
ENDCHAR
STARTCHAR 00F7
ENCODING 247
SWIDTH 480 0
DWIDTH 12 0
BBX 10 12 1 3
BITMAP
0400
0E00
0C00
0000
0000
FFC0
FFC0
0000
0000
0C00
0E00
0400
ENDCHAR
STARTCHAR 00F8
ENCODING 248
SWIDTH 480 0
DWIDTH 12 0
BBX 0 0 0 0
BITMAP
ENDCHAR
STARTCHAR 00F9
ENCODING 249
SWIDTH 520 0
DWIDTH 13 0
BBX 0 0 0 0
BITMAP
ENDCHAR
STARTCHAR 00FA
ENCODING 250
SWIDTH 520 0
DWIDTH 13 0
BBX 0 0 0 0
BITMAP
ENDCHAR
STARTCHAR 00FB
ENCODING 251
SWIDTH 520 0
DWIDTH 13 0
BBX 0 0 0 0
BITMAP
ENDCHAR
STARTCHAR 00FC
ENCODING 252
SWIDTH 520 0
DWIDTH 13 0
BBX 0 0 0 0
BITMAP
ENDCHAR
STARTCHAR 00FD
ENCODING 253
SWIDTH 440 0
DWIDTH 11 0
BBX 0 0 0 0
BITMAP
ENDCHAR
STARTCHAR 00FE
ENCODING 254
SWIDTH 480 0
DWIDTH 12 0
BBX 0 0 0 0
BITMAP
ENDCHAR
STARTCHAR 00FF
ENCODING 255
SWIDTH 440 0
DWIDTH 11 0
BBX 0 0 0 0
BITMAP
ENDCHAR
STARTCHAR 0131
ENCODING 305
SWIDTH 240 0
DWIDTH 6 0
BBX 6 12 0 0
BITMAP
10
30
F0
30
30
30
30
30
30
30
30
FC
ENDCHAR
STARTCHAR 02C6
ENCODING 710
SWIDTH 520 0
DWIDTH 13 0
BBX 6 5 3 14
BITMAP
10
38
78
44
84
ENDCHAR
STARTCHAR 02C7
ENCODING 711
SWIDTH 520 0
DWIDTH 13 0
BBX 7 5 3 14
BITMAP
02
84
6C
38
30
ENDCHAR
STARTCHAR 02C9
ENCODING 713
SWIDTH 480 0
DWIDTH 12 0
BBX 6 2 3 15
BITMAP
FC
FC
ENDCHAR
STARTCHAR 02D8
ENCODING 728
SWIDTH 520 0
DWIDTH 13 0
BBX 7 4 3 14
BITMAP
02
82
FC
78
ENDCHAR
STARTCHAR 02D9
ENCODING 729
SWIDTH 520 0
DWIDTH 13 0
BBX 2 3 5 14
BITMAP
C0
C0
40
ENDCHAR
STARTCHAR 02DA
ENCODING 730
SWIDTH 480 0
DWIDTH 12 0
BBX 4 4 4 14
BITMAP
60
90
90
60
ENDCHAR
STARTCHAR 02DB
ENCODING 731
SWIDTH 520 0
DWIDTH 13 0
BBX 4 6 5 -5
BITMAP
20
40
80
80
80
F0
ENDCHAR
STARTCHAR 02DC
ENCODING 732
SWIDTH 520 0
DWIDTH 13 0
BBX 7 4 3 14
BITMAP
02
7E
BC
80
ENDCHAR
STARTCHAR 02DD
ENCODING 733
SWIDTH 520 0
DWIDTH 13 0
BBX 7 4 3 15
BITMAP
66
6C
C8
90
ENDCHAR
STARTCHAR 037E
ENCODING 894
SWIDTH 320 0
DWIDTH 8 0
BBX 5 17 1 -5
BITMAP
78
78
78
70
00
00
00
00
78
78
78
38
18
38
70
E0
40
ENDCHAR
STARTCHAR 2013
ENCODING 8211
SWIDTH 560 0
DWIDTH 14 0
BBX 12 2 1 5
BITMAP
FFF0
FFF0
ENDCHAR
STARTCHAR 2014
ENCODING 8212
SWIDTH 1000 0
DWIDTH 25 0
BBX 25 2 0 5
BITMAP
FFFFFF80
FFFFFF80
ENDCHAR
STARTCHAR 2018
ENCODING 8216
SWIDTH 240 0
DWIDTH 6 0
BBX 3 7 2 13
BITMAP
20
40
C0
C0
C0
E0
40
ENDCHAR
STARTCHAR 2019
ENCODING 8217
SWIDTH 280 0
DWIDTH 7 0
BBX 2 7 2 13
BITMAP
C0
C0
C0
40
40
40
80
ENDCHAR
STARTCHAR 201A
ENCODING 8218
SWIDTH 280 0
DWIDTH 7 0
BBX 2 7 2 -4
BITMAP
C0
C0
C0
40
40
40
80
ENDCHAR
STARTCHAR 201C
ENCODING 8220
SWIDTH 440 0
DWIDTH 11 0
BBX 7 7 2 13
BITMAP
22
44
C4
C4
CE
E6
46
ENDCHAR
STARTCHAR 201D
ENCODING 8221
SWIDTH 440 0
DWIDTH 11 0
BBX 7 7 2 13
BITMAP
C4
CE
C6
46
46
44
88
ENDCHAR
STARTCHAR 201E
ENCODING 8222
SWIDTH 440 0
DWIDTH 11 0
BBX 7 7 2 -4
BITMAP
C4
CE
C6
46
46
44
88
ENDCHAR
STARTCHAR 2020
ENCODING 8224
SWIDTH 480 0
DWIDTH 12 0
BBX 10 21 1 -3
BITMAP
1C00
1C00
0C00
0800
C9C0
FFC0
C9C0
0800
1C00
1C00
1C00
1C00
0800
0800
0800
0800
0800
0800
0800
0800
0800
ENDCHAR
STARTCHAR 2021
ENCODING 8225
SWIDTH 480 0
DWIDTH 12 0
BBX 11 21 0 -4
BITMAP
0E00
0E00
0400
64E0
FFE0
64E0
0400
0400
0400
0E00
0E00
0400
0400
0400
64E0
7FE0
64E0
0400
0E00
0E00
0E00
ENDCHAR
STARTCHAR 2022
ENCODING 8226
SWIDTH 520 0
DWIDTH 13 0
BBX 7 7 3 5
BITMAP
7C
FE
FE
FE
FE
7C
38
ENDCHAR
STARTCHAR 2026
ENCODING 8230
SWIDTH 1000 0
DWIDTH 25 0
BBX 19 3 2 0
BITMAP
C0C060
E0E0E0
C04040
ENDCHAR
STARTCHAR 2039
ENCODING 8249
SWIDTH 320 0
DWIDTH 8 0
BBX 4 8 2 2
BITMAP
10
20
60
C0
C0
60
20
10
ENDCHAR
STARTCHAR 203A
ENCODING 8250
SWIDTH 320 0
DWIDTH 8 0
BBX 4 8 1 2
BITMAP
80
40
60
30
30
60
40
80
ENDCHAR
STARTCHAR 2044
ENCODING 8260
SWIDTH 160 0
DWIDTH 4 0
BBX 12 19 -4 0
BITMAP
0010
0010
0020
0040
0040
0080
0080
0100
0200
0200
0400
0C00
0800
1000
1000
2000
4000
4000
8000
ENDCHAR
STARTCHAR 20A3
ENCODING 8355
SWIDTH 480 0
DWIDTH 12 0
BBX 11 18 1 0
BITMAP
FFE0
3020
3020
3000
3000
3000
3000
3040
3FC0
3040
3040
3000
3000
FC00
3000
3000
3000
FC00
ENDCHAR
STARTCHAR 20A4
ENCODING 8356
SWIDTH 520 0
DWIDTH 13 0
BBX 10 18 1 0
BITMAP
0FC0
3840
3040
6000
6000
6000
6000
6000
FF00
FF00
1800
1800
1800
1800
3000
3040
6040
FFC0
ENDCHAR
STARTCHAR 20A7
ENCODING 8359
SWIDTH 1000 0
DWIDTH 25 0
BBX 23 18 1 0
BITMAP
FF8000
30C000
306200
302200
303200
30361C
303FEC
303644
303640
306660
38C678
37863C
30061E
300606
300602
300682
300744
FC03F8
ENDCHAR
STARTCHAR 20AC
ENCODING 8364
SWIDTH 480 0
DWIDTH 12 0
BBX 14 19 -1 0
BITMAP
01F0
0610
0808
1800
1000
3000
2000
2000
7FF0
2000
FFE0
2000
2000
3000
1000
1804
0C04
0608
01F0
ENDCHAR
STARTCHAR 2116
ENCODING 8470
SWIDTH 1120 0
DWIDTH 28 0
BBX 0 0 0 0
BITMAP
ENDCHAR
STARTCHAR 2122
ENCODING 8482
SWIDTH 720 0
DWIDTH 18 0
BBX 0 0 0 0
BITMAP
ENDCHAR
STARTCHAR 2202
ENCODING 8706
SWIDTH 480 0
DWIDTH 12 0
BBX 11 19 1 -1
BITMAP
3000
0C00
0200
0100
0180
0080
1FC0
21C0
40C0
40E0
C060
C060
C060
C060
C060
6040
60C0
3980
0E00
ENDCHAR
STARTCHAR 2206
ENCODING 8710
SWIDTH 520 0
DWIDTH 13 0
BBX 13 17 0 1
BITMAP
0200
0200
0300
0500
0580
0980
0880
10C0
1040
1040
2060
2020
4020
4030
4010
8018
FFF8
ENDCHAR
STARTCHAR 220F
ENCODING 8719
SWIDTH 760 0
DWIDTH 19 0
BBX 17 23 1 -5
BITMAP
FFFF80
300E00
300E00
300600
300600
300600
300600
300600
300600
300600
300600
300600
300600
300600
300600
300600
300600
300600
300600
300600
300E00
300E00
FC3F80
ENDCHAR
STARTCHAR 2211
ENCODING 8721
SWIDTH 600 0
DWIDTH 15 0
BBX 13 23 1 -5
BITMAP
FFF0
3810
3808
1C00
0E00
0700
0700
0380
01C0
00E0
0060
0070
0020
0040
0080
0100
0200
0400
0C00
0800
1008
2010
FFF0
ENDCHAR
STARTCHAR 2212
ENCODING 8722
SWIDTH 480 0
DWIDTH 12 0
BBX 10 2 1 8
BITMAP
FFC0
FFC0
ENDCHAR
STARTCHAR 2215
ENCODING 8725
SWIDTH 160 0
DWIDTH 4 0
BBX 12 19 -4 0
BITMAP
0010
0010
0020
0040
0040
0080
0080
0100
0200
0200
0400
0C00
0800
1000
1000
2000
4000
4000
8000
ENDCHAR
STARTCHAR 2219
ENCODING 8729
SWIDTH 240 0
DWIDTH 6 0
BBX 3 3 2 7
BITMAP
C0
E0
C0
ENDCHAR
STARTCHAR 221A
ENCODING 8730
SWIDTH 480 0
DWIDTH 12 0
BBX 13 20 0 0
BITMAP
0018
0030
0020
0060
0040
00C0
0080
0180
0100
0300
0200
0600
0400
0C00
0800
1800
9000
5000
6000
2000
ENDCHAR
STARTCHAR 221E
ENCODING 8734
SWIDTH 480 0
DWIDTH 12 0
BBX 12 9 0 4
BITMAP
01C0
7BE0
4420
8410
8410
8420
7A20
33E0
0080
ENDCHAR
STARTCHAR 222B
ENCODING 8747
SWIDTH 320 0
DWIDTH 8 0
BBX 10 24 -1 -3
BITMAP
00C0
0140
0200
0200
0400
0400
0400
0400
0400
0C00
0C00
0C00
0C00
0C00
0C00
0800
0800
0800
0800
1800
1000
1000
A000
C000
ENDCHAR
STARTCHAR 2248
ENCODING 8776
SWIDTH 480 0
DWIDTH 12 0
BBX 10 7 1 6
BITMAP
7C40
FFC0
8380
0000
7840
FFC0
8380
ENDCHAR
STARTCHAR 2264
ENCODING 8804
SWIDTH 480 0
DWIDTH 12 0
BBX 10 15 1 0
BITMAP
0040
01C0
0780
0E00
3800
F000
E000
7800
1E00
0780
01C0
00C0
0000
FFC0
FFC0
ENDCHAR
STARTCHAR 2265
ENCODING 8805
SWIDTH 480 0
DWIDTH 12 0
BBX 10 15 1 0
BITMAP
8000
E000
7800
1E00
0700
03C0
01C0
0780
1E00
3800
F000
C000
0000
FFC0
FFC0
ENDCHAR
STARTCHAR F001
ENCODING 61441
SWIDTH 520 0
DWIDTH 13 0
BBX 0 0 0 0
BITMAP
ENDCHAR
STARTCHAR F002
ENCODING 61442
SWIDTH 520 0
DWIDTH 13 0
BBX 0 0 0 0
BITMAP
ENDCHAR
STARTCHAR FB01
ENCODING 64257
SWIDTH 520 0
DWIDTH 13 0
BBX 0 0 0 0
BITMAP
ENDCHAR
STARTCHAR FB02
ENCODING 64258
SWIDTH 520 0
DWIDTH 13 0
BBX 0 0 0 0
BITMAP
ENDCHAR
ENDFONT
